<?xml version="1.0" encoding="UTF-8" standalone="no"?>
<svg
   viewBox="0 0 111.78667 127.38667"
   height="127.4"
   width="111.8"
   xml:space="preserve"
   version="1.1"
   id="svg3355"
   sodipodi:docname="Twitch_logo.svg"
   inkscape:version="1.1.1 (3bf5ae0d25, 2021-09-20)"
   xmlns:inkscape="http://www.inkscape.org/namespaces/inkscape"
   xmlns:sodipodi="http://sodipodi.sourceforge.net/DTD/sodipodi-0.dtd"
   xmlns="http://www.w3.org/2000/svg"
   xmlns:svg="http://www.w3.org/2000/svg"><defs
   id="defs29">
    
    
  </defs><sodipodi:namedview
   id="namedview27"
   pagecolor="#ffffff"
   bordercolor="#666666"
   borderopacity="1.0"
   inkscape:pageshadow="2"
   inkscape:pageopacity="0.0"
   inkscape:pagecheckerboard="0"
   showgrid="false"
   inkscape:zoom="4.1992284"
   inkscape:cx="-50.604535"
   inkscape:cy="140.38293"
   inkscape:window-width="2560"
   inkscape:window-height="1387"
   inkscape:window-x="1912"
   inkscape:window-y="-8"
   inkscape:window-maximized="1"
   inkscape:current-layer="svg3355" />
 <path d="M 105 11 C 105 11 104 73 104 73 S 78 94 78 94 S 41 108 40 108 S 15 89 15 89 S 15 12 15 12" fill="rgb(255, 255, 255)">
        </path>
    <g id="g3365" transform="matrix(1.3,0,0,-1.3,101.4,67.6)">
        <path style="fill: #6441a5; fill-rule: evenodd; stroke: none; fill-opacity: 1" id="path3367" d="M 0 0 l -13.7 -13.7 h -21.4 l -11.7 -11.7 v 11.7 H -64.3 V 42.9 H 0 Z m -72.1 50.7 l -3.9 -15.6 v -70.2 h 17.6 v -9.8 h 9.7 l 9.8 9.8 h 15.6 L 7.8 -3.9 v 54.6 z"/>
    </g>
    <path style="fill: #6441a5; fill-rule: evenodd; stroke: none; stroke-width: 1.3; fill-opacity: 1" id="path3369" d="M 44.2 62.4 h 10.4 V 31.2 h -10.4 z m 28.6 0 h 10.4 V 31.2 h -10.4 z"/>
</svg>
